<svg xmlns="http://www.w3.org/2000/svg" xmlns:xlink="http://www.w3.org/1999/xlink" width="103.957" height="17.288" viewBox="0 0 103.957 17.288">
  <defs>
    <clipPath id="clip-path">
      <rect width="103.957" height="17.288" fill="none"/>
    </clipPath>
  </defs>
  <g id="Repeat_Grid_1" data-name="Repeat Grid 1" clip-path="url(#clip-path)">
    <g transform="translate(-360.843 -5242.807)">
      <path id="Path_1391" data-name="Path 1391" d="M17.957,16.147l-6.524-.421L8.972,9.55,6.509,15.726,0,16.147,4.994,20.4,3.353,26.838l5.619-3.556,5.619,3.556L12.949,20.4Z" transform="translate(360.843 5233.257)" fill="#00bfa5"/>
    </g>
    <g transform="translate(-339.843 -5242.807)">
      <path id="Path_1391-2" data-name="Path 1391" d="M17.957,16.147l-6.524-.421L8.972,9.55,6.509,15.726,0,16.147,4.994,20.4,3.353,26.838l5.619-3.556,5.619,3.556L12.949,20.4Z" transform="translate(360.843 5233.257)" fill="#00bfa5"/>
    </g>
    <g transform="translate(-318.843 -5242.807)">
      <path id="Path_1391-3" data-name="Path 1391" d="M17.957,16.147l-6.524-.421L8.972,9.55,6.509,15.726,0,16.147,4.994,20.4,3.353,26.838l5.619-3.556,5.619,3.556L12.949,20.4Z" transform="translate(360.843 5233.257)" fill="#00bfa5"/>
    </g>
    <g transform="translate(-297.843 -5242.807)">
      <path id="Path_1391-4" data-name="Path 1391" d="M17.957,16.147l-6.524-.421L8.972,9.55,6.509,15.726,0,16.147,4.994,20.4,3.353,26.838l5.619-3.556,5.619,3.556L12.949,20.4Z" transform="translate(360.843 5233.257)" fill="#00bfa5"/>
    </g>
    <g transform="translate(-276.843 -5242.807)">
      <path id="Path_1391-5" data-name="Path 1391" d="M17.957,16.147l-6.524-.421L8.972,9.55,6.509,15.726,0,16.147,4.994,20.4,3.353,26.838l5.619-3.556,5.619,3.556L12.949,20.4Z" transform="translate(360.843 5233.257)" fill="#00bfa5"/>
    </g>
  </g>
</svg>
